<?xml version="1.0" standalone="no"?>
<!DOCTYPE svg PUBLIC "-//W3C//DTD SVG 20010904//EN"
 "http://www.w3.org/TR/2001/REC-SVG-20010904/DTD/svg10.dtd">
<svg version="1.0" xmlns="http://www.w3.org/2000/svg"
 width="499.000000pt" height="499.000000pt" viewBox="0 0 499.000000 499.000000"
 preserveAspectRatio="xMidYMid meet">
<metadata>
Created by potrace 1.14, written by Peter Selinger 2001-2017
</metadata>
<g transform="translate(0.000000,499.000000) scale(0.100000,-0.100000)"
fill="#000000" stroke="none">
<path d="M2275 3894 c-11 -2 -171 -5 -355 -7 -334 -4 -335 -4 -420 -31 -113
-37 -208 -88 -302 -162 -69 -54 -84 -62 -135 -68 -63 -6 -355 -67 -350 -72 3
-3 141 -11 342 -19 240 -10 589 -57 856 -115 876 -193 1428 -577 1610 -1121
40 -119 58 -219 66 -354 l6 -110 -61 81 c-172 228 -537 501 -860 643 -242 107
-459 159 -727 176 l-100 6 115 -51 c277 -121 593 -303 805 -463 498 -375 793
-781 905 -1244 l22 -93 77 0 c42 0 101 -7 131 -15 165 -44 387 -59 508 -34 62
12 165 56 211 88 15 11 31 18 35 16 3 -3 4 -3 2 0 -2 3 12 22 30 41 59 65 92
142 123 290 46 218 55 312 55 539 0 179 -3 225 -22 313 -57 260 -154 446 -310
589 l-57 52 64 65 64 64 91 -1 c232 -3 290 86 150 229 -108 110 -267 162 -354
116 -58 -32 -75 -79 -75 -212 -1 -128 -2 -129 -71 -115 -38 7 -15 -27 -263
400 -136 234 -201 319 -310 401 -183 137 -304 170 -628 173 -114 1 -352 3
-528 5 -176 2 -329 2 -340 0z m2102 -1524 c122 -20 226 -86 260 -167 13 -33
12 -37 -12 -79 -14 -24 -43 -56 -63 -69 -48 -32 -158 -69 -253 -86 -78 -14
-462 -19 -475 -7 -15 16 53 195 79 206 4 2 7 9 7 16 0 22 90 103 149 135 99
52 197 68 308 51z"/>
<path d="M796 3105 c-100 -172 -109 -185 -140 -191 -69 -12 -70 -11 -67 111 2
99 0 114 -21 154 -33 61 -76 83 -153 78 -139 -8 -335 -159 -335 -257 0 -72 63
-103 213 -105 l108 -1 62 -62 62 -63 -68 -60 c-138 -124 -247 -333 -298 -569
-20 -91 -23 -135 -23 -325 -1 -130 5 -259 12 -315 24 -168 69 -354 102 -419
57 -114 172 -199 322 -238 119 -30 327 -20 518 27 102 25 500 34 1501 34 l776
-1 38 -23 c83 -51 217 -166 272 -234 l32 -39 -13 49 c-47 171 -179 376 -312
484 -129 103 -167 120 -338 147 -625 97 -1057 349 -1441 839 -123 157 -251
367 -420 689 -118 225 -263 475 -276 475 -4 0 -54 -83 -113 -185z m49 -750
c104 -29 228 -133 273 -228 24 -51 52 -133 52 -152 0 -10 -19 -15 -72 -18
-115 -6 -328 2 -420 17 -188 31 -318 113 -318 201 1 32 40 91 83 125 87 69
264 93 402 55z"/>
</g>
</svg>
